<svg width="29" height="28" viewBox="0 0 29 28" fill="none" xmlns="http://www.w3.org/2000/svg">
<g clip-path="url(#clip0_5_3)">
<path d="M21.353 27.505L20.208 26.34L14.528 20.32C12.663 22.297 9.82102 25.308 8.68802 26.508C8.69702 26.513 8.70602 26.518 8.71502 26.523L7.65902 27.597C3.19102 25.075 -0.000976562 20.078 -0.000976562 14.6C-0.000976562 6.537 6.51502 0 14.552 0C22.589 0 29.104 6.537 29.104 14.6C29.104 20.197 25.963 25.055 21.353 27.505ZM14.552 1.413C7.30402 1.413 1.40802 7.329 1.40802 14.6C1.40802 19.212 3.93902 23.45 7.56602 25.861L13.662 19.402L12.506 18.177C12.455 18.125 12.072 18.025 11.928 18.177C11.63 18.495 11.217 18.932 11.206 18.944C10.968 19.197 10.577 19.197 10.339 18.944L10.272 18.872L10.117 18.708L5.84202 14.175C5.57502 13.892 5.60702 13.407 5.93802 13.173C6.18502 12.998 6.46802 13.105 6.67702 13.328L9.27702 16.084L10.433 17.309C10.608 17.496 10.956 17.426 11.107 17.202C11.225 17.027 11.188 16.78 11.044 16.627L9.90602 15.421L7.28702 12.644C7.02002 12.361 7.05202 11.876 7.38302 11.641C7.62902 11.466 7.91202 11.548 8.12202 11.77L10.722 14.528L11.877 15.753C12.053 15.938 12.401 15.894 12.551 15.671C12.669 15.494 12.733 15.171 12.589 15.018L11.451 13.812L8.85102 11.054C8.64202 10.832 8.58902 10.53 8.75402 10.268C8.97502 9.917 9.38202 9.883 9.64802 10.167L13.923 14.7L14.078 14.864L14.145 14.936C14.384 15.188 14.333 15.627 14.095 15.881C14.083 15.893 13.52 16.49 13.372 16.646C13.228 16.799 13.322 17.205 13.372 17.259L14.528 18.483L15.828 17.106L22.184 10.366C22.346 10.194 22.448 10.085 22.473 10.06C22.725 9.792 23.147 9.856 23.339 10.06C23.764 10.51 23.276 16.253 20.162 19.556C19.439 20.322 18.861 20.322 18.139 19.556C17.895 19.298 17.432 18.806 16.984 18.331C16.839 18.177 16.568 18.158 16.261 18.484C16.221 18.526 15.893 18.874 15.395 19.402L21.443 25.81C25.189 23.485 27.696 19.335 27.696 14.6C27.696 7.329 21.8 1.413 14.552 1.413ZM17.85 17.413C18.118 17.696 18.5 18.101 18.667 18.278C19.012 18.644 19.333 18.597 19.79 18.112C21.6 16.193 22.25 12.274 22.184 12.204C22.13 12.261 21.925 12.478 21.765 12.648C21.65 12.77 18.926 15.658 17.995 16.646C17.814 16.839 17.684 17.235 17.85 17.413ZM8.42802 27.985L8.41402 27.999C8.40502 27.995 8.39702 27.99 8.38802 27.985H8.42802Z" fill="white"/>
</g>
<defs>
<clipPath id="clip0_5_3">
<rect width="29" height="28" fill="white"/>
</clipPath>
</defs>
</svg>
